:version 1.10
:name ASF
:units
  mass 1
  length 1
  angle deg
:documentation
  ASF file generated by Kaydara
:root
  axis xyz
  order  tx ty tz rx ry rz
  position 0 0 0
  orientation 0 0 0
:bonedata
  begin
    id 1
    name lfemurDummy
    direction 0.61522 -0.761478 0.204097
    length 5.68318
    axis 0 -0 0 xyz
  end
  begin
    id 2
    name lfemur
    direction 0.34202 -0.939693 -5.84747e-008
    length 16.9147
    axis 0 -0 20 xyz
    dof rx ry rz
    limits( -inf , inf )
( -inf , inf )
( -inf , inf )

  end
  begin
    id 3
    name ltibia
    direction 0.34202 -0.939693 1.20839e-009
    length 18.0532
    axis 0 -0 20 xyz
    dof rz ry rx
    limits( -inf , inf )
( -inf , inf )
( -inf , inf )

  end
  begin
    id 4
    name lfoot
    direction 0.0841971 -0.23133 0.969225
    length 5.23822
    axis -90 7.62852e-016 20 xyz
    dof ry rx rz
    limits( -inf , inf )
( -inf , inf )
( -inf , inf )

  end
  begin
    id 5
    name ltoes
    direction 0 0 0
    length 0
    axis 0 0 0 xyz
    dof rz ry rx
    limits( -inf , inf )
( -inf , inf )
( -inf , inf )

  end
  begin
    id 6
    name rfemurDummy
    direction -0.625247 -0.75382 0.202044
    length 5.74091
    axis 0 -0 0 xyz
  end
  begin
    id 7
    name rfemur
    direction -0.34202 -0.939693 -1.47013e-008
    length 16.4922
    axis 0 -0 -20 xyz
    dof rx ry rz
    limits( -inf , inf )
( -inf , inf )
( -inf , inf )

  end
  begin
    id 8
    name rtibia
    direction -0.34202 -0.939693 -7.74345e-010
    length 18.2421
    axis 0 -0 -20 xyz
    dof rz ry rx
    limits( -inf , inf )
( -inf , inf )
( -inf , inf )

  end
  begin
    id 9
    name rfoot
    direction -0.124331 -0.341598 0.931586
    length 5.45787
    axis -90 -7.62852e-016 -20 xyz
    dof ry rx rz
    limits( -inf , inf )
( -inf , inf )
( -inf , inf )

  end
  begin
    id 10
    name rtoes
    direction 0 0 0
    length 0
    axis 0 0 0 xyz
    dof rz ry rx
    limits( -inf , inf )
( -inf , inf )
( -inf , inf )

  end
  begin
    id 11
    name lowerbackDummy
    direction 0 0 0
    length 0
    axis 0 -0 0 xyz
  end
  begin
    id 12
    name lowerback
    direction -0.0218484 0.994884 -0.0986304
    length 4.45607
    axis 0 -0 0 xyz
    dof rx ry rz
    limits( -inf , inf )
( -inf , inf )
( -inf , inf )

  end
  begin
    id 13
    name upperback
    direction -0.00973057 0.999717 -0.0217111
    length 4.47449
    axis 0 -0 0 xyz
    dof rx ry rz
    limits( -inf , inf )
( -inf , inf )
( -inf , inf )

  end
  begin
    id 14
    name thorax
    direction -0.000928171 0.999699 0.0245198
    length 4.50973
    axis 0 -0 0 xyz
    dof rx ry rz
    limits( -inf , inf )
( -inf , inf )
( -inf , inf )

  end
  begin
    id 15
    name rclavicle
    direction -0.9009 0.425937 -0.0834055
    length 7.28587
    axis 0 -0 0 xyz
    dof rx ry rz
    limits( -inf , inf )
( -inf , inf )
( -inf , inf )

  end
  begin
    id 16
    name rhumerus
    direction -1 -2.23604e-007 -1.42637e-007
    length 13.5704
    axis 180 30 90 xyz
    dof rx ry rz
    limits( -inf , inf )
( -inf , inf )
( -inf , inf )

  end
  begin
    id 17
    name rradius
    direction -1 5.68281e-008 -4.4952e-007
    length 8.06782
    axis 180 30 90 xyz
    dof rz ry rx
    limits( -inf , inf )
( -inf , inf )
( -inf , inf )

  end
  begin
    id 18
    name rwrist
    direction -1 1.51393e-007 1.38143e-007
    length 4.03391
    axis -90 -90 0 xyz
    dof rz rx ry
    limits( -inf , inf )
( -inf , inf )
( -inf , inf )

  end
  begin
    id 19
    name rthumb
    direction 0 0 0
    length 0
    axis 0 0 0 xyz
    dof ry rx rz
    limits( -inf , inf )
( -inf , inf )
( -inf , inf )

  end
  begin
    id 20
    name rhand
    direction -1 -3.34077e-007 -5.59631e-007
    length 1.29744
    axis -90 -90 0 xyz
    dof ry rx rz
    limits( -inf , inf )
( -inf , inf )
( -inf , inf )

  end
  begin
    id 21
    name rfingers
    direction 0 0 0
    length 0
    axis 0 0 0 xyz
    dof rz ry rx
    limits( -inf , inf )
( -inf , inf )
( -inf , inf )

  end
  begin
    id 22
    name lclavicle
    direction 0.940017 0.332249 -0.0773232
    length 8.29589
    axis 0 -0 0 xyz
    dof rx ry rz
    limits( -inf , inf )
( -inf , inf )
( -inf , inf )

  end
  begin
    id 23
    name lhumerus
    direction 1 7.41158e-008 -1.44768e-008
    length 12.0042
    axis 180 -30 -90 xyz
    dof rx ry rz
    limits( -inf , inf )
( -inf , inf )
( -inf , inf )

  end
  begin
    id 24
    name lradius
    direction 1 -1.32972e-007 3.10821e-007
    length 8.1902
    axis 180 -30 -90 xyz
    dof rz ry rx
    limits( -inf , inf )
( -inf , inf )
( -inf , inf )

  end
  begin
    id 25
    name lwrist
    direction 1 3.08957e-007 4.01394e-007
    length 4.09509
    axis -90 90 0 xyz
    dof rz rx ry
    limits( -inf , inf )
( -inf , inf )
( -inf , inf )

  end
  begin
    id 26
    name lthumb
    direction 0 0 0
    length 0
    axis 0 0 0 xyz
    dof ry rx rz
    limits( -inf , inf )
( -inf , inf )
( -inf , inf )

  end
  begin
    id 27
    name lhand
    direction 1 -1.64125e-007 -6.99514e-007
    length 1.37229
    axis -90 90 0 xyz
    dof ry rx rz
    limits( -inf , inf )
( -inf , inf )
( -inf , inf )

  end
  begin
    id 28
    name lfingers
    direction 0 0 0
    length 0
    axis 0 0 0 xyz
    dof rz ry rx
    limits( -inf , inf )
( -inf , inf )
( -inf , inf )

  end
  begin
    id 29
    name lowerneck
    direction -0.030798 0.998024 0.0547665
    length 3.93918
    axis 0 -0 0 xyz
    dof rx ry rz
    limits( -inf , inf )
( -inf , inf )
( -inf , inf )

  end
  begin
    id 30
    name upperneck
    direction 0.0531588 0.996611 -0.0627736
    length 3.95491
    axis 0 -0 0 xyz
    dof rx ry rz
    limits( -inf , inf )
( -inf , inf )
( -inf , inf )

  end
  begin
    id 31
    name head
    direction 0 0 0
    length 0
    axis 0 0 0 xyz
    dof rx ry rz
    limits( -inf , inf )
( -inf , inf )
( -inf , inf )

  end
:hierarchy
  begin
    root lfemurDummy rfemurDummy lowerbackDummy
    lfemurDummy lfemur
    lfemur ltibia
    ltibia lfoot
    lfoot ltoes
    rfemurDummy rfemur
    rfemur rtibia
    rtibia rfoot
    rfoot rtoes
    lowerbackDummy lowerback
    lowerback upperback
    upperback thorax
    thorax rclavicle lclavicle lowerneck
    rclavicle rhumerus
    rhumerus rradius
    rradius rwrist
    rwrist rthumb rhand
    rhand rfingers
    lclavicle lhumerus
    lhumerus lradius
    lradius lwrist
    lwrist lthumb lhand
    lhand lfingers
    lowerneck upperneck
    upperneck head
  end

:SAMPLES-PER-SECOND 30
:FULLY-SPECIFIED
:DEGREES
29
root  7.629444092 38.02711006 7.375310913 0.7550048828 -57.07700348 8.619995117
lowerback  16.31469917 0.4537450075 -1.053439975
upperback  5.201759815 0.3170410097 1.062559962
thorax  -3.617619991 0.08158580214 1.659260035
lowerneck  -7.08716011 12.07579994 -0.7096880078
upperneck  1.333940029 16.6072998 -10.06989956
head  2.526900053 8.018489838 -2.316890001
lclavicle  0 -9.442270133e-015 7.951389973e-016
lhumerus  5.581419945 4.441160202 67.73449707
lradius  2.624302157e-031 -2.362600734e-031 138.0039978
lwrist  -1.412450015e-030 -0 11.68229961
lhand  -1.496451383e-031 -27.76390076 20.11240005
lfingers  90 7.125020027 -90
lthumb  89.89689403 5.08795885 91.16245106
rclavicle  0 -9.442270133e-015 7.951389973e-016
rhumerus  -29.04789925 25.72480011 -83.06330109
rradius  -1.247241295e-031 3.303518305e-031 110.6839981
rwrist  7.062250077e-031 -0 -8.12732029
rhand  -7.920061211e-032 -33.2840004 9.303460121
rfingers  -90 -7.125020027 -90
rthumb  -92.93752616 -24.25625642 -97.11982154
rfemur  -18.08729935 21.88599968 -4.738959789
rtibia  -0 0 50.84870148
rfoot  -0 -24.20219994 -16.27860069
rtoes  5.373923086 19.29304026 -105.8922705
lfemur  -42.4640007 15.13300037 -5.000520229
ltibia  -0 0 56.9897995
lfoot  -0 2.371360064 -9.564220428
ltoes  -4.250644065 -19.5611806 -102.515957
30
root  7.503266973 37.77400039 7.552733384 1.171005249 -56.17199707 7.451004028
lowerback  16.6487999 0.3557269871 -0.9950230122
upperback  5.124889851 0.2061049938 1.222630024
thorax  -3.872730017 0.02942340076 1.817559958
lowerneck  -7.483329773 12.13850021 -1.273079991
upperneck  1.620120049 16.75860023 -9.731030464
head  2.609750032 8.072299957 -2.081860065
lclavicle  0 -9.442270133e-015 7.951389973e-016
lhumerus  5.568940163 4.363840103 68.05500031
lradius  2.619555234e-031 -2.367862837e-031 137.8890076
lwrist  -7.062250077e-031 -1.765562519e-031 11.9048996
lhand  -1.496451383e-031 -27.76390076 20.11240005
lfingers  90 7.125020027 -90
lthumb  89.89689403 5.08795885 91.16245106
rclavicle  0 -9.442270133e-015 7.951389973e-016
rhumerus  -31.43499947 25.32500076 -82.9417038
rradius  -1.304018367e-031 3.28152101e-031 111.6719971
rwrist  7.062250077e-031 -1.765562519e-031 -8.353360176
rhand  -7.920061211e-032 -33.2840004 9.303460121
rfingers  -90 -7.125020027 -90
rthumb  -92.93752616 -24.25625642 -97.11982154
rfemur  -16.65270042 22.1243 -3.792229891
rtibia  -0 0 51.29510117
rfoot  -0 -24.7031002 -15.16149998
rtoes  5.373923086 19.29304026 -105.8922705
lfemur  -42.56430054 14.86439991 -4.758989811
ltibia  -0 0 55.72949982
lfoot  -0 3.432899952 -11.48999977
ltoes  -4.250644065 -19.5611806 -102.515957
31
root  7.378400217 37.54022253 7.763533705 1.444000244 -55.0719986 6.29800415
lowerback  16.97170067 0.2321619987 -0.8725060225
upperback  5.062950134 0.07307259738 1.372509956
thorax  -4.104720116 -0.03374579921 1.934800029
lowerneck  -7.32656002 12.05659962 -1.566799998
upperneck  1.404690027 16.64369965 -9.792739868
head  2.481920004 8.02410984 -2.081069946
lclavicle  0 -9.442270133e-015 7.951389973e-016
lhumerus  5.467569828 4.089280128 68.521698
lradius  2.618273471e-031 -2.369280074e-031 137.8580017
lwrist  -1.412450015e-030 1.765562519e-031 12.08399963
lhand  -1.496451383e-031 -27.76390076 20.11240005
lfingers  90 7.125020027 -90
lthumb  89.89689403 5.08795885 91.16245106
rclavicle  0 -9.442270133e-015 7.951389973e-016
rhumerus  -33.91849899 24.82889938 -82.81659698
rradius  -1.366718415e-031 3.255906143e-031 112.7710037
rwrist  7.062250077e-031 1.765562519e-031 -8.630889893
rhand  -7.920061211e-032 -33.2840004 9.303460121
rfingers  -90 -7.125020027 -90
rthumb  -92.93752616 -24.25625642 -97.11982154
rfemur  -15.17070007 22.20590019 -2.842060089
rtibia  -0 0 51.95819855
rfoot  -0 -24.7567997 -14.25930023
rtoes  5.373923086 19.29304026 -105.8922705
lfemur  -42.67649841 14.38739967 -4.672659874
ltibia  -0 0 54.85380173
lfoot  -0 3.796679974 -13.04160023
ltoes  -4.250644065 -19.5611806 -102.515957
32
root  7.236133035 37.33044422 8.002311226 1.917007446 -53.56199646 4.966003418
lowerback  17.02149963 -0.0009793989593 -0.5042920113
upperback  4.98183012 -0.1567880064 1.526460052
thorax  -4.208479881 -0.144453004 1.935700059
lowerneck  -6.915279865 11.9133997 -1.767179966
upperneck  1.079900026 16.41410065 -9.846079826
head  2.276380062 7.933529854 -2.117470026
lclavicle  0 -9.442270133e-015 7.951389973e-016
lhumerus  5.375329971 3.645950079 69.15190125
lradius  2.615418293e-031 -2.372431493e-031 137.7890015
lwrist  -7.062250077e-031 1.765562519e-031 12.32689953
lhand  -1.496451383e-031 -27.76390076 20.11240005
lfingers  90 7.125020027 -90
lthumb  89.89689403 5.08795885 91.16245106
rclavicle  0 -9.442270133e-015 7.951389973e-016
rhumerus  -36.37060165 24.25839996 -82.56749725
rradius  -1.425476275e-031 3.230613166e-031 113.8089981
rwrist  7.062250077e-031 -1.765562519e-031 -8.764749527
rhand  -7.920061211e-032 -33.2840004 9.303460121
rfingers  -90 -7.125020027 -90
rthumb  -92.93752616 -24.25625642 -97.11982154
rfemur  -13.56989956 22.10639954 -1.702069998
rtibia  -0 0 52.75220108
rfoot  -0 -24.34690094 -13.5394001
rtoes  5.373923086 19.29304026 -105.8922705
lfemur  -43.03379822 13.69859982 -4.657239914
ltibia  -0 0 54.5243988
lfoot  -0 2.850179911 -13.88510036
ltoes  -4.250644065 -19.5611806 -102.515957
